<svg id="visual" viewBox="0 0 900 600" width="900" height="600" xmlns="http://www.w3.org/2000/svg" xmlns:xlink="http://www.w3.org/1999/xlink" version="1.1"><rect x="0" y="0" width="900" height="600" fill="#FFFFFF"></rect><path d="M0 422L21.5 425.7C43 429.3 86 436.7 128.8 426.2C171.7 415.7 214.3 387.3 257.2 387C300 386.7 343 414.3 385.8 418C428.7 421.7 471.3 401.3 514.2 389.5C557 377.7 600 374.3 642.8 378.8C685.7 383.3 728.3 395.7 771.2 403.3C814 411 857 414 878.5 415.5L900 417L900 601L878.5 601C857 601 814 601 771.2 601C728.3 601 685.7 601 642.8 601C600 601 557 601 514.2 601C471.3 601 428.7 601 385.8 601C343 601 300 601 257.2 601C214.3 601 171.7 601 128.8 601C86 601 43 601 21.5 601L0 601Z" fill="#54c14d"></path><path d="M0 446L21.5 451.5C43 457 86 468 128.8 460.7C171.7 453.3 214.3 427.7 257.2 415.7C300 403.7 343 405.3 385.8 417C428.7 428.7 471.3 450.3 514.2 461.3C557 472.3 600 472.7 642.8 463.2C685.7 453.7 728.3 434.3 771.2 424.7C814 415 857 415 878.5 415L900 415L900 601L878.5 601C857 601 814 601 771.2 601C728.3 601 685.7 601 642.8 601C600 601 557 601 514.2 601C471.3 601 428.7 601 385.8 601C343 601 300 601 257.2 601C214.3 601 171.7 601 128.8 601C86 601 43 601 21.5 601L0 601Z" fill="#41a452"></path><path d="M0 484L21.5 482.5C43 481 86 478 128.8 470.3C171.7 462.7 214.3 450.3 257.2 456C300 461.7 343 485.3 385.8 487.7C428.7 490 471.3 471 514.2 466.3C557 461.7 600 471.3 642.8 472.8C685.7 474.3 728.3 467.7 771.2 466C814 464.3 857 467.7 878.5 469.3L900 471L900 601L878.5 601C857 601 814 601 771.2 601C728.3 601 685.7 601 642.8 601C600 601 557 601 514.2 601C471.3 601 428.7 601 385.8 601C343 601 300 601 257.2 601C214.3 601 171.7 601 128.8 601C86 601 43 601 21.5 601L0 601Z" fill="#378751"></path><path d="M0 532L21.5 529.7C43 527.3 86 522.7 128.8 516.7C171.7 510.7 214.3 503.3 257.2 506.3C300 509.3 343 522.7 385.8 524.3C428.7 526 471.3 516 514.2 508.8C557 501.7 600 497.3 642.8 494.3C685.7 491.3 728.3 489.7 771.2 494C814 498.3 857 508.7 878.5 513.8L900 519L900 601L878.5 601C857 601 814 601 771.2 601C728.3 601 685.7 601 642.8 601C600 601 557 601 514.2 601C471.3 601 428.7 601 385.8 601C343 601 300 601 257.2 601C214.3 601 171.7 601 128.8 601C86 601 43 601 21.5 601L0 601Z" fill="#346a4b"></path><path d="M0 547L21.5 549.8C43 552.7 86 558.3 128.8 555C171.7 551.7 214.3 539.3 257.2 537.7C300 536 343 545 385.8 551.2C428.7 557.3 471.3 560.7 514.2 556C557 551.3 600 538.7 642.8 534.8C685.7 531 728.3 536 771.2 536.5C814 537 857 533 878.5 531L900 529L900 601L878.5 601C857 601 814 601 771.2 601C728.3 601 685.7 601 642.8 601C600 601 557 601 514.2 601C471.3 601 428.7 601 385.8 601C343 601 300 601 257.2 601C214.3 601 171.7 601 128.8 601C86 601 43 601 21.5 601L0 601Z" fill="#344e41"></path></svg>