<svg xmlns="http://www.w3.org/2000/svg" version="1.1" xmlns:xlink="http://www.w3.org/1999/xlink" xmlns:svgjs="http://svgjs.dev/svgjs" width="1500" height="1500" viewBox="0 0 1500 1500"><rect width="1500" height="1500" fill="#ffffff"></rect><g transform="matrix(0.6666666666666666,0,0,0.6666666666666666,249.39393939393938,643.7917082253014)"><svg viewBox="0 0 396 84" data-background-color="#ffffff" preserveAspectRatio="xMidYMid meet" height="318" width="1500" xmlns="http://www.w3.org/2000/svg" xmlns:xlink="http://www.w3.org/1999/xlink"><g id="tight-bounds" transform="matrix(1,0,0,1,0.24000000000003752,0.08253070318249911)"><svg viewBox="0 0 395.5199999999999 83.83493859363497" height="83.83493859363497" width="395.5199999999999"><g><svg viewBox="0 0 494.67896329724164 104.8528026688594" height="83.83493859363497" width="395.5199999999999"><g transform="matrix(1,0,0,1,99.15896329724166,14.491233943380713)"><svg viewBox="0 0 395.52 75.87033478209797" height="75.87033478209797" width="395.52"><g id="textblocktransform"><svg viewBox="0 0 395.52 75.87033478209797" height="75.87033478209797" width="395.52" id="textblock"><g><svg viewBox="0 0 395.52 75.87033478209797" height="75.87033478209797" width="395.52"><g transform="matrix(1,0,0,1,0,0)"><svg width="395.52" viewBox="1.27 -36.04 207.82 39.87" height="75.87033478209797" data-palette-color="#50a060"><g class="wordmark-text-0" data-fill-palette-color="primary" id="text-0"><path d="M9.72 0L9.72-23.66 20.95-23.66 20.95 0 9.72 0ZM1.27-25.34L1.27-32.4 29.39-32.4 29.39-25.34 1.27-25.34ZM44.31 0L33.52 0 33.52-32.4 44.31-32.4 44.31 0ZM54.12-25.93L46.02-25.93 46.02-32.4 58.35-32.4 64.84-25.93 64.84-16.21 59.86-11.23 59.52-11.91 49.39-10.57 49.78-9.72 46.02-9.72 46.02-15.99 54.12-15.99 54.12-25.93ZM59.86-11.23L65.94 0 54.42 0 49.78-9.72 58.35-9.72 59.86-11.23ZM92.43 0L91.06-3.54 80.46-3.54 82.71-9.96 88.57-9.96 79.9-32.4 90.42-32.4 103.34 0 92.43 0ZM83.52-18.07L77.58 0 67.16 0 78.73-30.93 83.52-18.07ZM116.72-32.4L116.72 0 112.42 0 105.93-6.47 105.93-25.93 112.42-32.4 116.72-32.4ZM125.6-25.93L118.43-25.93 118.43-32.4 129.92-32.4 136.39-25.93 136.39-19.41 125.6-19.41 125.6-25.93ZM129.92 0L118.43 0 118.43-6.47 125.6-6.47 125.6-11.21 136.39-11.21 136.39-6.47 129.92 0ZM152.36 0L141.57 0 141.57-32.4 152.36-32.4 152.36 0ZM172.82-32.4L154.02-4.59 154.02-20.34 161.59-32.37 172.82-32.4ZM164.39-17.14L173.33 0 161.66 0 158-7.54 164.39-17.14ZM188.56-32.4L188.56-19.46 202.62-19.46 209.09-12.94 209.09-6.47 202.62 0 198.28 0 198.28-12.94 184.24-12.94 177.77-19.46 177.77-25.93 184.24-32.4 188.56-32.4ZM188.56-9.72L188.56-6.47 196.64-6.47 196.64 3.83 189.27 3.83 189.27 0 184.24 0 177.77-6.47 177.77-9.72 188.56-9.72ZM198.28-25.93L190.22-25.93 190.22-36.04 197.52-36.04 197.52-32.4 202.62-32.4 209.09-25.93 209.09-22.68 198.28-22.68 198.28-25.93Z" fill="#50a060" data-fill-palette-color="primary"></path></g></svg></g></svg></g></svg></g></svg></g><g><svg viewBox="0 0 81.2477981432231 104.8528026688594" height="104.8528026688594" width="81.2477981432231"><g><svg xmlns="http://www.w3.org/2000/svg" xmlns:xlink="http://www.w3.org/1999/xlink" version="1.1" x="0" y="0" viewBox="16.44199353846451 5.04876792265498 65.06900104496125 83.97356337460585" enable-background="new 0 0 100 100" xml:space="preserve" width="81.2477981432231" height="104.8528026688594" class="icon-icon-0" data-fill-palette-color="accent" id="icon-0"><g fill="#50a060" data-fill-palette-color="accent"><g fill="#50a060" data-fill-palette-color="accent"></g></g><g fill="#50a060" data-fill-palette-color="accent"><g fill="#50a060" data-fill-palette-color="accent"></g></g><g fill="#50a060" data-fill-palette-color="accent"><g fill="#50a060" data-fill-palette-color="accent"></g></g><g fill="#50a060" data-fill-palette-color="accent"><g fill="#50a060" data-fill-palette-color="accent"></g></g><g fill="#50a060" data-fill-palette-color="accent"><path d="M36.66 29.53l-11.542-9.327c0 0-2.667-8.213 5.771-5.771 0 0 5.105 1.777 8.213-2.442 0 0 3.55-12.878 13.988-3.552 0 0 3.332 10.822 8.218 8.851 0 0 5.105-9.294 12.21-4.188 0 0 4.664 5.993-9.769 16.43H36.66z" fill="#50a060" data-fill-palette-color="accent"></path><path d="M79.851 60.836c0 0-1.337-7.891-17.538-21.093H35.892c0 0-16.656 15.54-19.316 23.979 0 0-3.111 18.872 20.646 24.202 0 0 15.986 3.773 30.64-2.667C67.861 85.257 87.181 80.815 79.851 60.836zM50.669 74.243v4.342h-2.634v-4.177c-2.423-0.043-4.89-0.796-6.353-1.84l1.004-2.799c1.462 0.961 3.635 1.797 5.973 1.797 2.969 0 4.975-1.718 4.975-4.098 0-2.296-1.629-3.721-4.722-4.97-4.264-1.67-6.898-3.638-6.898-7.275 0-3.468 2.467-6.101 6.27-6.728v-4.179h2.634v4.055c2.466 0.083 4.177 0.751 5.431 1.462l-1.043 2.758c-0.879-0.503-2.59-1.463-5.269-1.463-3.214 0-4.426 1.924-4.426 3.638 0 2.13 1.544 3.215 5.181 4.762 4.303 1.759 6.479 3.888 6.479 7.605C57.271 70.479 54.972 73.569 50.669 74.243z" fill="#50a060" data-fill-palette-color="accent"></path><rect x="33.141" y="31.997" width="33.401" height="5.171" fill="#50a060" data-fill-palette-color="accent"></rect></g></svg><g></g></g></svg></g></svg></g><defs></defs></svg><rect width="395.5199999999999" height="83.83493859363497" fill="none" stroke="none" visibility="hidden"></rect></g></svg></g></svg>