<?xml version="1.0" encoding="UTF-8"?>
<svg xmlns="http://www.w3.org/2000/svg" xmlns:xlink="http://www.w3.org/1999/xlink" width="500px" height="500px" viewBox="0 0 500 500" version="1.1">
<defs>
<clipPath id="clip1">
  <path d="M 83.695312 225.335938 L 299.265625 225.335938 L 299.265625 274.890625 L 83.695312 274.890625 Z M 83.695312 225.335938 "/>
</clipPath>
<clipPath id="clip2">
  <path d="M 311.019531 225.335938 L 415.902344 225.335938 L 415.902344 274.890625 L 311.019531 274.890625 Z M 311.019531 225.335938 "/>
</clipPath>
</defs>
<g id="surface1">
<rect x="0" y="0" width="500" height="500" style="fill:rgb(100%,100%,100%);fill-opacity:1;stroke:none;"/>
<g clip-path="url(#clip1)" clip-rule="nonzero">
<path style=" stroke:none;fill-rule:nonzero;fill:rgb(54.509804%,77.254902%,24.705882%);fill-opacity:1;" d="M 83.707031 263.433594 L 83.707031 259.210938 L 87.25 259.210938 L 87.25 230.453125 L 83.707031 230.453125 L 83.707031 226.15625 L 100.457031 226.207031 C 101.964844 226.207031 103.382812 226.488281 104.710938 227.054688 C 106.03125 227.617188 107.183594 228.386719 108.171875 229.367188 C 109.148438 230.339844 109.921875 231.488281 110.484375 232.816406 C 111.054688 234.136719 111.339844 235.558594 111.339844 237.082031 C 111.339844 238.671875 110.898438 240.117188 110.011719 241.425781 C 109.125 242.742188 107.867188 243.789062 106.230469 244.574219 C 107.035156 244.996094 107.761719 245.492188 108.414062 246.0625 C 109.070312 246.625 109.625 247.242188 110.082031 247.914062 C 110.542969 248.585938 110.898438 249.296875 111.148438 250.046875 C 111.402344 250.804688 111.53125 251.574219 111.53125 252.359375 C 111.53125 253.914062 111.25 255.363281 110.683594 256.707031 C 110.121094 258.046875 109.347656 259.214844 108.363281 260.214844 C 107.382812 261.214844 106.234375 262.003906 104.910156 262.578125 C 103.597656 263.148438 102.1875 263.433594 100.675781 263.433594 Z M 100.726562 246.878906 L 92.058594 246.878906 L 92.058594 259.210938 L 100.726562 259.210938 C 101.511719 259.210938 102.238281 259.011719 102.910156 258.617188 C 103.582031 258.226562 104.171875 257.71875 104.679688 257.085938 C 105.191406 256.457031 105.585938 255.738281 105.867188 254.933594 C 106.15625 254.136719 106.300781 253.320312 106.300781 252.480469 C 106.300781 251.761719 106.152344 251.070312 105.859375 250.398438 C 105.5625 249.726562 105.167969 249.128906 104.671875 248.597656 C 104.167969 248.074219 103.578125 247.660156 102.898438 247.351562 C 102.222656 247.035156 101.5 246.878906 100.726562 246.878906 Z M 100.507812 230.453125 L 92.058594 230.453125 L 92.058594 242.613281 L 100.507812 242.613281 C 101.289062 242.613281 102.023438 242.457031 102.710938 242.140625 C 103.386719 241.832031 103.972656 241.417969 104.46875 240.894531 C 104.972656 240.371094 105.371094 239.761719 105.667969 239.074219 C 105.960938 238.390625 106.109375 237.679688 106.109375 236.941406 C 106.109375 236.136719 105.960938 235.34375 105.667969 234.566406 C 105.371094 233.789062 104.96875 233.097656 104.460938 232.496094 C 103.949219 231.882812 103.355469 231.390625 102.679688 231.015625 C 102 230.640625 101.277344 230.453125 100.507812 230.453125 Z M 131.175781 242.222656 L 131.175781 237.996094 L 139.382812 237.996094 L 139.382812 259.210938 L 142.199219 259.210938 L 142.199219 263.433594 L 134.785156 263.433594 L 134.785156 261.082031 C 133.640625 261.960938 132.390625 262.644531 131.042969 263.144531 C 129.6875 263.632812 128.246094 263.875 126.707031 263.875 C 125.429688 263.875 124.269531 263.691406 123.226562 263.324219 C 122.1875 262.953125 121.308594 262.382812 120.582031 261.605469 C 119.851562 260.824219 119.289062 259.839844 118.894531 258.648438 C 118.503906 257.453125 118.308594 256.027344 118.308594 254.371094 L 118.308594 242.222656 L 114.871094 242.222656 L 114.871094 237.996094 L 123.066406 237.996094 L 123.066406 253.828125 C 123.066406 255.78125 123.519531 257.253906 124.425781 258.253906 C 125.324219 259.253906 126.613281 259.753906 128.296875 259.753906 C 129.296875 259.753906 130.351562 259.570312 131.457031 259.210938 C 132.5625 258.847656 133.605469 258.347656 134.585938 257.710938 L 134.585938 242.222656 Z M 164.003906 229.445312 L 164.003906 225.222656 L 172.03125 225.222656 L 172.03125 259.210938 L 175.765625 259.210938 L 175.765625 263.433594 L 167.464844 263.433594 L 167.464844 261.34375 C 166.648438 262.179688 165.699219 262.835938 164.617188 263.304688 C 163.539062 263.765625 162.3125 263.996094 160.9375 263.996094 C 159.214844 263.996094 157.613281 263.699219 156.140625 263.101562 C 154.65625 262.503906 153.371094 261.628906 152.277344 260.476562 C 151.191406 259.324219 150.339844 257.90625 149.722656 256.222656 C 149.113281 254.546875 148.808594 252.628906 148.808594 250.46875 C 148.808594 248.503906 149.101562 246.714844 149.691406 245.097656 C 150.28125 243.488281 151.117188 242.113281 152.195312 240.972656 C 153.277344 239.839844 154.578125 238.957031 156.097656 238.328125 C 157.621094 237.699219 159.316406 237.382812 161.179688 237.382812 C 162.40625 237.382812 163.53125 237.515625 164.546875 237.785156 C 165.5625 238.054688 166.535156 238.523438 167.464844 239.195312 L 167.464844 229.445312 Z M 161.519531 260.023438 C 162.882812 260.023438 164.023438 259.824219 164.941406 259.421875 C 165.859375 259.019531 166.699219 258.414062 167.464844 257.609375 L 167.464844 243.367188 C 166.648438 242.683594 165.707031 242.183594 164.640625 241.867188 C 163.578125 241.558594 162.492188 241.40625 161.378906 241.40625 C 160.300781 241.40625 159.285156 241.609375 158.332031 242.011719 C 157.378906 242.414062 156.546875 242.996094 155.839844 243.761719 C 155.128906 244.53125 154.566406 245.472656 154.15625 246.585938 C 153.75 247.699219 153.542969 248.976562 153.542969 250.417969 C 153.542969 251.988281 153.742188 253.371094 154.136719 254.574219 C 154.527344 255.765625 155.074219 256.769531 155.777344 257.582031 C 156.480469 258.390625 157.328125 259 158.3125 259.410156 C 159.292969 259.820312 160.359375 260.023438 161.519531 260.023438 Z M 198.746094 261.5625 L 198.746094 261.203125 C 197.914062 262.085938 196.945312 262.773438 195.839844 263.261719 C 194.734375 263.753906 193.476562 263.996094 192.070312 263.996094 C 190.351562 263.996094 188.753906 263.699219 187.269531 263.101562 C 185.789062 262.503906 184.503906 261.628906 183.417969 260.476562 C 182.324219 259.324219 181.472656 257.90625 180.863281 256.222656 C 180.246094 254.546875 179.9375 252.628906 179.9375 250.46875 C 179.9375 248.503906 180.234375 246.714844 180.824219 245.097656 C 181.414062 243.488281 182.25 242.113281 183.328125 240.972656 C 184.40625 239.839844 185.707031 238.957031 187.230469 238.328125 C 188.753906 237.699219 190.449219 237.382812 192.320312 237.382812 C 193.59375 237.382812 194.742188 237.523438 195.769531 237.804688 C 196.789062 238.09375 197.78125 238.589844 198.746094 239.292969 L 198.746094 237.996094 L 203.3125 237.996094 L 203.3125 262.429688 C 203.3125 266.453125 202.363281 269.496094 200.457031 271.5625 C 198.554688 273.625 195.585938 274.660156 191.554688 274.660156 C 190.671875 274.660156 189.746094 274.59375 188.78125 274.457031 C 187.8125 274.332031 186.863281 274.125 185.921875 273.835938 C 184.976562 273.546875 184.058594 273.179688 183.167969 272.738281 C 182.273438 272.296875 181.453125 271.757812 180.703125 271.117188 L 183.15625 267.417969 C 183.644531 267.839844 184.207031 268.230469 184.835938 268.59375 C 185.46875 268.949219 186.144531 269.253906 186.867188 269.507812 C 187.585938 269.765625 188.332031 269.964844 189.101562 270.113281 C 189.871094 270.261719 190.640625 270.335938 191.40625 270.335938 C 192.664062 270.335938 193.757812 270.203125 194.683594 269.941406 C 195.609375 269.679688 196.371094 269.21875 196.96875 268.554688 C 197.5625 267.890625 198.007812 266.996094 198.304688 265.867188 C 198.601562 264.734375 198.746094 263.300781 198.746094 261.5625 Z M 192.660156 260.023438 C 193.414062 260.023438 194.101562 259.949219 194.722656 259.804688 C 195.347656 259.65625 195.910156 259.460938 196.414062 259.21875 C 196.921875 258.984375 197.371094 258.714844 197.75 258.40625 C 198.140625 258.089844 198.472656 257.761719 198.746094 257.417969 L 198.746094 243.5 C 197.914062 242.761719 196.953125 242.226562 195.859375 241.898438 C 194.773438 241.570312 193.65625 241.40625 192.511719 241.40625 C 191.429688 241.40625 190.417969 241.609375 189.472656 242.011719 C 188.519531 242.414062 187.691406 242.996094 186.980469 243.761719 C 186.269531 244.53125 185.703125 245.472656 185.289062 246.585938 C 184.878906 247.699219 184.675781 248.976562 184.675781 250.417969 C 184.675781 251.988281 184.875 253.371094 185.269531 254.574219 C 185.664062 255.765625 186.214844 256.769531 186.917969 257.582031 C 187.621094 258.390625 188.464844 259 189.441406 259.410156 C 190.429688 259.820312 191.5 260.023438 192.660156 260.023438 Z M 232.242188 251.304688 L 213.925781 251.304688 C 213.925781 252.019531 213.980469 252.679688 214.085938 253.273438 C 214.195312 253.878906 214.34375 254.449219 214.539062 254.984375 C 215.144531 256.621094 216.113281 257.855469 217.445312 258.6875 C 218.78125 259.511719 220.292969 259.925781 221.984375 259.925781 C 223.304688 259.925781 224.589844 259.738281 225.84375 259.371094 C 227.097656 259 228.414062 258.425781 229.789062 257.640625 L 231.628906 260.757812 C 229.957031 261.90625 228.28125 262.757812 226.597656 263.3125 C 224.910156 263.871094 223.15625 264.148438 221.339844 264.148438 C 219.621094 264.148438 218.03125 263.859375 216.5625 263.285156 C 215.097656 262.714844 213.839844 261.863281 212.777344 260.730469 C 211.726562 259.601562 210.902344 258.195312 210.304688 256.515625 C 209.707031 254.824219 209.410156 252.859375 209.410156 250.621094 C 209.410156 248.800781 209.660156 247.085938 210.164062 245.46875 C 210.671875 243.859375 211.429688 242.453125 212.4375 241.246094 C 213.441406 240.046875 214.695312 239.09375 216.1875 238.390625 C 217.675781 237.683594 219.410156 237.332031 221.390625 237.332031 C 223.308594 237.332031 224.90625 237.621094 226.1875 238.199219 C 227.472656 238.78125 228.523438 239.550781 229.335938 240.511719 C 230.148438 241.46875 230.761719 242.5625 231.175781 243.789062 C 231.589844 245.015625 231.882812 246.269531 232.050781 247.542969 C 232.132812 248.164062 232.183594 248.796875 232.210938 249.433594 C 232.230469 250.078125 232.242188 250.699219 232.242188 251.304688 Z M 221.066406 241.164062 C 220.007812 241.164062 219.078125 241.316406 218.28125 241.617188 C 217.488281 241.917969 216.816406 242.351562 216.257812 242.914062 C 215.703125 243.476562 215.257812 244.171875 214.921875 244.996094 C 214.585938 245.816406 214.335938 246.730469 214.167969 247.742188 L 227.355469 247.742188 C 227.292969 246.789062 227.140625 245.914062 226.902344 245.117188 C 226.667969 244.3125 226.304688 243.617188 225.816406 243.027344 C 225.320312 242.4375 224.6875 241.976562 223.921875 241.648438 C 223.152344 241.324219 222.199219 241.164062 221.066406 241.164062 Z M 245.820312 229.789062 L 245.820312 237.996094 L 251.785156 237.996094 L 251.785156 241.699219 L 245.769531 241.699219 L 245.699219 256.382812 C 245.699219 257.382812 245.8125 258.195312 246.042969 258.816406 C 246.269531 259.441406 246.640625 259.871094 247.148438 260.105469 C 247.660156 260.347656 248.230469 260.46875 248.867188 260.46875 C 249.550781 260.46875 250.15625 260.402344 250.679688 260.277344 C 251.207031 260.15625 251.78125 259.949219 252.398438 259.652344 L 253.457031 262.71875 C 252.671875 263.128906 251.847656 263.453125 250.980469 263.695312 C 250.109375 263.929688 249.085938 264.046875 247.914062 264.046875 C 246.800781 264.046875 245.828125 263.914062 244.996094 263.644531 C 244.171875 263.371094 243.476562 262.914062 242.914062 262.277344 C 242.351562 261.640625 241.929688 260.785156 241.648438 259.710938 C 241.363281 258.640625 241.222656 257.300781 241.222656 255.699219 L 241.304688 241.699219 L 237.25 241.699219 L 237.25 237.996094 L 241.355469 237.996094 L 241.355469 231.902344 Z M 265.566406 233.871094 L 265.566406 237.996094 L 271.460938 237.996094 L 271.460938 241.699219 L 265.566406 241.699219 L 265.566406 259.210938 L 269.539062 259.210938 L 269.539062 263.433594 L 257.167969 263.433594 L 257.167969 259.210938 L 261 259.210938 L 261 241.699219 L 256.792969 241.699219 L 256.792969 237.996094 L 261 237.996094 L 261 234.011719 C 261.027344 232.539062 261.238281 231.253906 261.632812 230.160156 C 262.027344 229.0625 262.585938 228.140625 263.300781 227.40625 C 264.019531 226.675781 264.886719 226.128906 265.90625 225.765625 C 266.921875 225.402344 268.050781 225.222656 269.296875 225.222656 C 270.164062 225.222656 270.941406 225.261719 271.632812 225.34375 C 272.316406 225.429688 272.929688 225.539062 273.472656 225.675781 C 274.007812 225.816406 274.488281 225.96875 274.910156 226.136719 C 275.324219 226.296875 275.699219 226.460938 276.027344 226.621094 L 274.628906 229.890625 C 274.097656 229.613281 273.414062 229.375 272.578125 229.175781 C 271.730469 228.980469 270.851562 228.882812 269.929688 228.882812 C 268.578125 228.882812 267.511719 229.304688 266.734375 230.152344 C 265.953125 230.988281 265.566406 232.230469 265.566406 233.871094 Z M 273.761719 242.222656 L 273.761719 237.996094 L 283.410156 237.996094 L 283.410156 242.222656 L 280.390625 242.222656 L 286.355469 258.445312 L 292.59375 242.222656 L 289.605469 242.222656 L 289.605469 237.996094 L 299.25 237.996094 L 299.25 242.222656 L 296.625 242.222656 L 285.300781 270.777344 L 288.789062 270.777344 L 288.789062 275 L 278.519531 275 L 278.519531 270.777344 L 281.617188 270.777344 L 284.324219 263.777344 L 275.824219 242.222656 Z M 273.761719 242.222656 "/>
</g>
<path style=" stroke:none;fill-rule:nonzero;fill:rgb(36.470588%,60%,26.27451%);fill-opacity:1;" d="M 325.535156 234.03125 C 325.535156 236.851562 323.25 239.140625 320.425781 239.148438 C 317.601562 239.152344 315.3125 236.867188 315.308594 234.039062 C 315.304688 231.21875 317.59375 228.929688 320.414062 228.921875 C 323.238281 228.917969 325.53125 231.207031 325.535156 234.03125 Z M 325.535156 234.03125 "/>
<path style=" stroke:none;fill-rule:nonzero;fill:rgb(36.470588%,60%,26.27451%);fill-opacity:1;" d="M 318.089844 235.625 C 318.269531 236.21875 318.519531 236.707031 318.84375 237.097656 C 319.171875 237.484375 319.539062 237.695312 319.953125 237.730469 L 319.949219 234.542969 C 319.273438 234.210938 318.773438 233.898438 318.457031 233.613281 C 317.890625 233.113281 317.605469 232.535156 317.605469 231.882812 C 317.605469 231.234375 317.828125 230.699219 318.269531 230.289062 C 318.710938 229.878906 319.273438 229.644531 319.941406 229.597656 L 319.941406 228.613281 L 320.628906 228.613281 L 320.632812 229.585938 C 321.101562 229.644531 321.488281 229.726562 321.792969 229.828125 C 322.089844 229.925781 322.375 230.066406 322.660156 230.238281 L 322.660156 232.011719 L 322.394531 232.007812 C 322.226562 231.492188 322.058594 231.101562 321.878906 230.839844 C 321.5625 230.367188 321.148438 230.085938 320.625 229.984375 L 320.632812 232.710938 C 321.460938 233.121094 322.039062 233.480469 322.371094 233.773438 C 322.945312 234.289062 323.238281 234.902344 323.238281 235.613281 C 323.238281 236.261719 323.035156 236.8125 322.609375 237.265625 C 322.195312 237.71875 321.535156 238 320.636719 238.109375 L 320.640625 239.367188 L 319.953125 239.367188 L 319.949219 238.105469 C 319.609375 238.09375 319.332031 238.0625 319.117188 238.015625 C 318.769531 237.941406 318.335938 237.796875 317.828125 237.574219 L 317.824219 235.59375 Z M 319.941406 229.957031 C 319.609375 230.003906 319.335938 230.125 319.121094 230.324219 C 318.910156 230.523438 318.800781 230.785156 318.800781 231.109375 C 318.800781 231.453125 318.953125 231.75 319.257812 231.996094 C 319.445312 232.148438 319.675781 232.269531 319.949219 232.359375 Z M 321.53125 237.28125 C 321.730469 237.039062 321.824219 236.722656 321.824219 236.324219 C 321.824219 236 321.71875 235.730469 321.503906 235.527344 C 321.289062 235.320312 320.996094 235.125 320.632812 234.9375 L 320.636719 237.722656 C 321.042969 237.675781 321.339844 237.527344 321.53125 237.28125 Z M 321.53125 237.28125 "/>
<path style=" stroke:none;fill-rule:nonzero;fill:rgb(36.470588%,60%,26.27451%);fill-opacity:1;" d="M 325.535156 266.277344 C 325.535156 269.097656 323.25 271.386719 320.425781 271.394531 C 317.601562 271.398438 315.3125 269.113281 315.308594 266.285156 C 315.304688 263.464844 317.59375 261.175781 320.414062 261.171875 C 323.238281 261.164062 325.53125 263.449219 325.535156 266.277344 Z M 325.535156 266.277344 "/>
<path style=" stroke:none;fill-rule:nonzero;fill:rgb(36.470588%,60%,26.27451%);fill-opacity:1;" d="M 318.089844 267.871094 C 318.269531 268.464844 318.519531 268.953125 318.84375 269.34375 C 319.171875 269.730469 319.539062 269.941406 319.953125 269.976562 L 319.949219 266.789062 C 319.273438 266.457031 318.773438 266.144531 318.457031 265.859375 C 317.890625 265.359375 317.605469 264.78125 317.605469 264.128906 C 317.605469 263.480469 317.828125 262.945312 318.269531 262.535156 C 318.710938 262.125 319.273438 261.890625 319.941406 261.839844 L 319.941406 260.859375 L 320.628906 260.859375 L 320.632812 261.832031 C 321.101562 261.890625 321.488281 261.972656 321.792969 262.074219 C 322.089844 262.171875 322.375 262.3125 322.660156 262.484375 L 322.660156 264.257812 L 322.394531 264.253906 C 322.226562 263.738281 322.058594 263.347656 321.878906 263.085938 C 321.5625 262.613281 321.148438 262.332031 320.625 262.230469 L 320.632812 264.957031 C 321.460938 265.367188 322.039062 265.722656 322.371094 266.019531 C 322.945312 266.535156 323.238281 267.148438 323.238281 267.859375 C 323.238281 268.507812 323.035156 269.058594 322.609375 269.511719 C 322.195312 269.964844 321.535156 270.246094 320.636719 270.355469 L 320.640625 271.613281 L 319.953125 271.613281 L 319.949219 270.351562 C 319.609375 270.339844 319.332031 270.304688 319.117188 270.261719 C 318.769531 270.1875 318.335938 270.039062 317.828125 269.820312 L 317.824219 267.839844 Z M 319.941406 262.203125 C 319.609375 262.25 319.335938 262.371094 319.121094 262.570312 C 318.910156 262.769531 318.800781 263.03125 318.800781 263.355469 C 318.800781 263.699219 318.953125 263.996094 319.257812 264.242188 C 319.445312 264.394531 319.675781 264.515625 319.949219 264.605469 Z M 321.53125 269.527344 C 321.730469 269.285156 321.824219 268.96875 321.824219 268.574219 C 321.824219 268.246094 321.71875 267.976562 321.503906 267.777344 C 321.289062 267.570312 320.996094 267.371094 320.632812 267.183594 L 320.636719 269.972656 C 321.042969 269.925781 321.339844 269.773438 321.53125 269.527344 Z M 321.53125 269.527344 "/>
<path style=" stroke:none;fill-rule:nonzero;fill:rgb(36.470588%,60%,26.27451%);fill-opacity:1;" d="M 411.609375 234.03125 C 411.613281 236.851562 409.328125 239.140625 406.503906 239.148438 C 403.679688 239.152344 401.390625 236.867188 401.386719 234.039062 C 401.382812 231.21875 403.667969 228.929688 406.492188 228.921875 C 409.316406 228.917969 411.609375 231.207031 411.609375 234.03125 Z M 411.609375 234.03125 "/>
<path style=" stroke:none;fill-rule:nonzero;fill:rgb(36.470588%,60%,26.27451%);fill-opacity:1;" d="M 404.167969 235.625 C 404.347656 236.21875 404.597656 236.707031 404.921875 237.097656 C 405.246094 237.484375 405.613281 237.695312 406.03125 237.730469 L 406.027344 234.542969 C 405.347656 234.210938 404.851562 233.898438 404.535156 233.613281 C 403.96875 233.113281 403.683594 232.535156 403.679688 231.882812 C 403.679688 231.234375 403.902344 230.699219 404.347656 230.289062 C 404.789062 229.878906 405.351562 229.644531 406.019531 229.597656 L 406.019531 228.613281 L 406.707031 228.613281 L 406.710938 229.585938 C 407.179688 229.644531 407.566406 229.726562 407.867188 229.828125 C 408.164062 229.925781 408.453125 230.066406 408.734375 230.238281 L 408.738281 232.011719 L 408.472656 232.007812 C 408.304688 231.492188 408.136719 231.101562 407.957031 230.839844 C 407.640625 230.367188 407.226562 230.085938 406.707031 229.984375 L 406.710938 232.710938 C 407.539062 233.121094 408.117188 233.480469 408.449219 233.773438 C 409.023438 234.289062 409.316406 234.902344 409.316406 235.613281 C 409.316406 236.261719 409.109375 236.8125 408.691406 237.265625 C 408.273438 237.71875 407.613281 238 406.714844 238.109375 L 406.722656 239.367188 L 406.03125 239.367188 L 406.027344 238.105469 C 405.691406 238.09375 405.414062 238.0625 405.195312 238.015625 C 404.847656 237.941406 404.414062 237.796875 403.90625 237.574219 L 403.902344 235.59375 Z M 406.019531 229.957031 C 405.6875 230.003906 405.414062 230.125 405.199219 230.324219 C 404.984375 230.523438 404.875 230.785156 404.875 231.113281 C 404.878906 231.457031 405.03125 231.75 405.335938 231.996094 C 405.523438 232.148438 405.753906 232.269531 406.027344 232.359375 Z M 407.609375 237.28125 C 407.808594 237.039062 407.902344 236.722656 407.902344 236.324219 C 407.902344 236 407.796875 235.730469 407.582031 235.527344 C 407.367188 235.320312 407.074219 235.125 406.710938 234.9375 L 406.714844 237.722656 C 407.121094 237.675781 407.417969 237.527344 407.609375 237.28125 Z M 407.609375 237.28125 "/>
<path style=" stroke:none;fill-rule:nonzero;fill:rgb(36.470588%,60%,26.27451%);fill-opacity:1;" d="M 411.609375 266.277344 C 411.613281 269.097656 409.328125 271.386719 406.503906 271.394531 C 403.679688 271.398438 401.390625 269.113281 401.386719 266.285156 C 401.382812 263.464844 403.667969 261.175781 406.492188 261.171875 C 409.316406 261.164062 411.609375 263.449219 411.609375 266.277344 Z M 411.609375 266.277344 "/>
<path style=" stroke:none;fill-rule:nonzero;fill:rgb(36.470588%,60%,26.27451%);fill-opacity:1;" d="M 404.167969 267.871094 C 404.347656 268.464844 404.597656 268.953125 404.921875 269.34375 C 405.246094 269.730469 405.613281 269.941406 406.03125 269.976562 L 406.027344 266.789062 C 405.347656 266.457031 404.851562 266.144531 404.535156 265.859375 C 403.96875 265.359375 403.683594 264.78125 403.679688 264.128906 C 403.679688 263.480469 403.902344 262.945312 404.347656 262.535156 C 404.789062 262.125 405.351562 261.890625 406.019531 261.839844 L 406.019531 260.859375 L 406.707031 260.859375 L 406.710938 261.832031 C 407.179688 261.890625 407.566406 261.972656 407.867188 262.074219 C 408.164062 262.171875 408.453125 262.3125 408.734375 262.484375 L 408.738281 264.257812 L 408.472656 264.253906 C 408.304688 263.738281 408.136719 263.347656 407.957031 263.085938 C 407.640625 262.613281 407.226562 262.332031 406.707031 262.230469 L 406.710938 264.957031 C 407.539062 265.367188 408.117188 265.722656 408.449219 266.019531 C 409.023438 266.535156 409.316406 267.148438 409.316406 267.859375 C 409.316406 268.507812 409.109375 269.058594 408.691406 269.511719 C 408.273438 269.964844 407.613281 270.246094 406.714844 270.355469 L 406.722656 271.613281 L 406.03125 271.613281 L 406.027344 270.351562 C 405.691406 270.339844 405.414062 270.304688 405.195312 270.261719 C 404.847656 270.1875 404.414062 270.039062 403.90625 269.820312 L 403.902344 267.839844 Z M 406.019531 262.203125 C 405.6875 262.25 405.414062 262.371094 405.199219 262.570312 C 404.984375 262.769531 404.875 263.03125 404.875 263.355469 C 404.878906 263.699219 405.03125 263.996094 405.335938 264.242188 C 405.523438 264.394531 405.753906 264.515625 406.027344 264.605469 Z M 407.609375 269.527344 C 407.808594 269.285156 407.902344 268.96875 407.902344 268.574219 C 407.902344 268.246094 407.796875 267.976562 407.582031 267.777344 C 407.367188 267.570312 407.074219 267.371094 406.710938 267.183594 L 406.714844 269.972656 C 407.121094 269.925781 407.417969 269.773438 407.609375 269.527344 Z M 407.609375 269.527344 "/>
<path style=" stroke:none;fill-rule:nonzero;fill:rgb(36.470588%,60%,26.27451%);fill-opacity:1;" d="M 391.167969 246.632812 C 391.023438 246.273438 390.8125 246.097656 390.535156 246.097656 C 390.253906 246.097656 390.042969 246.28125 389.894531 246.640625 C 389.75 247.003906 389.679688 247.683594 389.679688 248.691406 L 389.683594 251.554688 C 389.691406 252.574219 389.769531 253.261719 389.910156 253.617188 C 390.054688 253.976562 390.269531 254.152344 390.558594 254.152344 C 390.921875 254.152344 391.164062 253.824219 391.289062 253.164062 C 391.359375 252.800781 391.390625 252.265625 391.390625 251.554688 L 391.386719 248.691406 C 391.386719 247.671875 391.3125 246.988281 391.167969 246.632812 Z M 391.167969 246.632812 "/>
<path style=" stroke:none;fill-rule:nonzero;fill:rgb(36.470588%,60%,26.27451%);fill-opacity:1;" d="M 336.648438 246.632812 C 336.503906 246.277344 336.292969 246.097656 336.015625 246.097656 C 335.734375 246.097656 335.523438 246.28125 335.375 246.640625 C 335.230469 247.003906 335.160156 247.683594 335.160156 248.691406 L 335.164062 251.558594 C 335.175781 252.578125 335.25 253.261719 335.390625 253.617188 C 335.535156 253.976562 335.75 254.152344 336.039062 254.152344 C 336.402344 254.152344 336.644531 253.824219 336.769531 253.164062 C 336.835938 252.800781 336.871094 252.265625 336.871094 251.554688 L 336.867188 248.691406 C 336.867188 247.671875 336.792969 246.988281 336.648438 246.632812 Z M 336.648438 246.632812 "/>
<path style=" stroke:none;fill-rule:nonzero;fill:rgb(36.470588%,60%,26.27451%);fill-opacity:1;" d="M 342.894531 246.625 C 342.75 246.269531 342.539062 246.089844 342.265625 246.089844 C 341.984375 246.09375 341.769531 246.273438 341.625 246.632812 C 341.480469 246.992188 341.40625 247.675781 341.40625 248.683594 L 341.410156 251.550781 C 341.421875 252.570312 341.496094 253.253906 341.640625 253.613281 C 341.78125 253.96875 342 254.144531 342.285156 254.144531 C 342.648438 254.144531 342.890625 253.816406 343.015625 253.15625 C 343.085938 252.789062 343.117188 252.253906 343.117188 251.546875 L 343.113281 248.683594 C 343.113281 247.667969 343.042969 246.980469 342.894531 246.625 Z M 342.894531 246.625 "/>
<path style=" stroke:none;fill-rule:nonzero;fill:rgb(36.470588%,60%,26.27451%);fill-opacity:1;" d="M 397.414062 246.625 C 397.269531 246.269531 397.058594 246.089844 396.785156 246.089844 C 396.503906 246.09375 396.289062 246.273438 396.144531 246.632812 C 395.996094 246.992188 395.925781 247.675781 395.925781 248.683594 L 395.929688 251.550781 C 395.941406 252.570312 396.015625 253.253906 396.160156 253.613281 C 396.300781 253.964844 396.515625 254.144531 396.804688 254.144531 C 397.167969 254.144531 397.414062 253.8125 397.535156 253.15625 C 397.605469 252.789062 397.640625 252.253906 397.636719 251.546875 L 397.632812 248.683594 C 397.632812 247.667969 397.5625 246.980469 397.414062 246.625 Z M 397.414062 246.625 "/>
<path style=" stroke:none;fill-rule:nonzero;fill:rgb(36.470588%,60%,26.27451%);fill-opacity:1;" d="M 406.480469 239.769531 C 403.34375 239.769531 400.800781 237.226562 400.800781 234.089844 C 400.800781 233.414062 400.917969 232.769531 401.132812 232.167969 L 325.785156 232.167969 C 326 232.769531 326.117188 233.414062 326.117188 234.089844 C 326.117188 237.226562 323.574219 239.769531 320.4375 239.769531 C 319.804688 239.769531 319.199219 239.667969 318.628906 239.476562 L 318.628906 260.746094 C 319.199219 260.554688 319.804688 260.453125 320.4375 260.453125 C 323.574219 260.453125 326.117188 262.996094 326.117188 266.132812 C 326.117188 266.804688 326 267.453125 325.785156 268.054688 L 401.132812 268.054688 C 400.917969 267.453125 400.800781 266.804688 400.800781 266.132812 C 400.800781 262.996094 403.34375 260.453125 406.484375 260.453125 C 407.113281 260.453125 407.722656 260.554688 408.289062 260.746094 L 408.289062 239.476562 C 407.722656 239.667969 407.113281 239.769531 406.480469 239.769531 Z M 327.503906 254.332031 L 327.503906 254.035156 C 328.136719 254.035156 328.542969 253.945312 328.722656 253.773438 C 328.902344 253.601562 328.988281 253.273438 328.988281 252.785156 L 328.984375 247.972656 C 328.984375 247.664062 328.949219 247.445312 328.875 247.3125 C 328.804688 247.183594 328.671875 247.121094 328.480469 247.121094 C 328.382812 247.121094 328.222656 247.15625 328.011719 247.222656 C 327.878906 247.265625 327.695312 247.332031 327.460938 247.421875 L 327.460938 247.101562 L 330.617188 245.738281 L 330.835938 245.738281 L 330.84375 252.855469 C 330.84375 253.3125 330.917969 253.621094 331.066406 253.785156 C 331.210938 253.945312 331.585938 254.027344 332.1875 254.027344 L 332.1875 254.324219 Z M 337.902344 253.464844 C 337.378906 254.152344 336.753906 254.5 336.027344 254.5 C 335.515625 254.5 335.074219 254.351562 334.714844 254.050781 C 334.351562 253.746094 334.042969 253.359375 333.785156 252.882812 C 333.566406 252.480469 333.410156 252.019531 333.320312 251.5 C 333.265625 251.191406 333.226562 250.753906 333.195312 250.183594 C 333.195312 248.6875 333.527344 247.53125 334.191406 246.710938 C 334.722656 246.058594 335.328125 245.734375 336.011719 245.734375 C 336.796875 245.730469 337.464844 246.132812 338.007812 246.933594 C 338.558594 247.757812 338.832031 248.789062 338.835938 250.035156 C 338.835938 251.5 338.527344 252.648438 337.902344 253.464844 Z M 344.152344 253.457031 C 343.628906 254.148438 343.003906 254.492188 342.273438 254.492188 C 341.761719 254.492188 341.324219 254.34375 340.960938 254.042969 C 340.601562 253.742188 340.292969 253.351562 340.035156 252.878906 C 339.816406 252.476562 339.65625 252.011719 339.570312 251.492188 C 339.515625 251.1875 339.476562 250.75 339.445312 250.175781 C 339.441406 248.679688 339.773438 247.523438 340.441406 246.707031 C 340.96875 246.054688 341.574219 245.726562 342.257812 245.726562 C 343.046875 245.726562 343.714844 246.125 344.253906 246.925781 C 344.804688 247.75 345.082031 248.78125 345.082031 250.027344 C 345.085938 251.496094 344.773438 252.640625 344.152344 253.457031 Z M 350.519531 250.125 C 350.515625 243.324219 355.808594 237.746094 362.5 237.316406 L 362.503906 239.585938 C 360.898438 239.707031 359.570312 240.261719 358.507812 241.246094 C 357.445312 242.230469 356.917969 243.5 356.921875 245.054688 C 356.921875 246.609375 357.597656 247.984375 358.957031 249.183594 C 359.722656 249.867188 360.90625 250.613281 362.523438 251.40625 L 362.527344 259.015625 C 361.539062 258.933594 360.660156 258.429688 359.882812 257.503906 C 359.105469 256.570312 358.503906 255.402344 358.082031 253.984375 L 357.445312 253.914062 L 357.453125 258.636719 C 358.675781 259.167969 359.703125 259.519531 360.539062 259.695312 C 361.050781 259.804688 361.71875 259.875 362.53125 259.914062 L 362.535156 262.910156 C 355.835938 262.492188 350.527344 256.933594 350.519531 250.125 Z M 362.511719 246.1875 C 361.871094 245.972656 361.320312 245.683594 360.871094 245.320312 C 360.144531 244.730469 359.78125 244.027344 359.777344 243.210938 C 359.78125 242.429688 360.035156 241.800781 360.542969 241.324219 C 361.054688 240.847656 361.710938 240.554688 362.503906 240.457031 Z M 364.160156 252.347656 C 365.027344 252.789062 365.714844 253.257812 366.226562 253.757812 C 366.738281 254.253906 366.996094 254.890625 367 255.667969 C 367 256.605469 366.769531 257.367188 366.304688 257.953125 C 365.847656 258.539062 365.132812 258.894531 364.167969 259.015625 Z M 364.171875 262.90625 L 364.167969 259.910156 C 366.316406 259.648438 367.886719 258.984375 368.882812 257.902344 C 369.878906 256.824219 370.378906 255.511719 370.375 253.964844 C 370.375 252.257812 369.683594 250.792969 368.304688 249.5625 C 367.515625 248.859375 366.132812 248.011719 364.152344 247.027344 L 364.144531 240.515625 C 365.375 240.75 366.371094 241.429688 367.128906 242.550781 C 367.554688 243.175781 367.964844 244.109375 368.359375 245.351562 L 368.996094 245.347656 L 368.988281 241.117188 C 368.320312 240.707031 367.625 240.378906 366.914062 240.140625 C 366.199219 239.894531 365.277344 239.699219 364.144531 239.558594 L 364.140625 237.316406 C 370.84375 237.726562 376.15625 243.289062 376.164062 250.097656 C 376.175781 256.90625 370.875 262.480469 364.171875 262.90625 Z M 386.707031 254.328125 L 382.019531 254.332031 L 382.019531 254.035156 C 382.65625 254.035156 383.0625 253.945312 383.242188 253.773438 C 383.421875 253.601562 383.507812 253.273438 383.507812 252.785156 L 383.503906 247.972656 C 383.5 247.664062 383.464844 247.445312 383.394531 247.3125 C 383.324219 247.183594 383.191406 247.121094 383 247.121094 C 382.902344 247.121094 382.742188 247.15625 382.53125 247.222656 C 382.398438 247.265625 382.214844 247.328125 381.980469 247.421875 L 381.980469 247.101562 L 385.136719 245.738281 L 385.355469 245.738281 L 385.363281 252.855469 C 385.363281 253.3125 385.4375 253.621094 385.582031 253.785156 C 385.730469 253.945312 386.105469 254.027344 386.707031 254.027344 Z M 392.425781 253.464844 C 391.902344 254.152344 391.277344 254.5 390.546875 254.5 C 390.035156 254.5 389.59375 254.351562 389.234375 254.050781 C 388.871094 253.746094 388.566406 253.359375 388.304688 252.882812 C 388.085938 252.480469 387.929688 252.019531 387.839844 251.5 C 387.789062 251.191406 387.746094 250.753906 387.71875 250.179688 C 387.714844 248.6875 388.046875 247.53125 388.714844 246.710938 C 389.242188 246.058594 389.847656 245.734375 390.53125 245.734375 C 391.320312 245.730469 391.984375 246.132812 392.527344 246.933594 C 393.078125 247.757812 393.355469 248.789062 393.355469 250.035156 C 393.355469 251.5 393.046875 252.644531 392.425781 253.464844 Z M 398.671875 253.457031 C 398.148438 254.148438 397.523438 254.492188 396.792969 254.492188 C 396.28125 254.492188 395.839844 254.34375 395.480469 254.042969 C 395.121094 253.742188 394.8125 253.351562 394.550781 252.878906 C 394.332031 252.476562 394.175781 252.011719 394.085938 251.492188 C 394.035156 251.1875 393.992188 250.75 393.964844 250.175781 C 393.960938 248.679688 394.292969 247.523438 394.960938 246.707031 C 395.488281 246.054688 396.09375 245.726562 396.777344 245.726562 C 397.566406 245.726562 398.230469 246.125 398.773438 246.925781 C 399.324219 247.75 399.601562 248.78125 399.601562 250.027344 C 399.601562 251.492188 399.292969 252.640625 398.671875 253.457031 Z M 398.671875 253.457031 "/>
<g clip-path="url(#clip2)" clip-rule="nonzero">
<path style=" stroke:none;fill-rule:nonzero;fill:rgb(36.470588%,60%,26.27451%);fill-opacity:1;" d="M 311.019531 225.222656 L 311.019531 275 L 415.902344 275 L 415.902344 225.222656 Z M 413.101562 272.207031 L 313.816406 272.207031 L 313.816406 228.015625 L 413.101562 228.015625 Z M 413.101562 272.207031 "/>
</g>
</g>
</svg>
