<svg xmlns="http://www.w3.org/2000/svg" version="1.1" xmlns:xlink="http://www.w3.org/1999/xlink" xmlns:svgjs="http://svgjs.dev/svgjs" width="1500" height="1500" viewBox="0 0 1500 1500"><rect width="1500" height="1500" fill="#ffffff"></rect><g transform="matrix(0.6666666666666666,0,0,0.6666666666666666,249.39393939393938,676.0023438085916)"><svg viewBox="0 0 396 59" data-background-color="#ffffff" preserveAspectRatio="xMidYMid meet" height="223" width="1500" xmlns="http://www.w3.org/2000/svg" xmlns:xlink="http://www.w3.org/1999/xlink"><g id="tight-bounds" transform="matrix(1,0,0,1,0.2400000000000091,-0.13321716170565878)"><svg viewBox="0 0 395.52 59.266434323411296" height="59.266434323411296" width="395.52"><g><svg viewBox="0 0 534.3575718539556 80.070458984375" height="59.266434323411296" width="395.52"><g><svg viewBox="0 0 534.3575718539556 80.070458984375" height="80.070458984375" width="534.3575718539556"><g id="textblocktransform"><svg viewBox="0 0 534.3575718539556 80.070458984375" height="80.070458984375" width="534.3575718539556" id="textblock"><g><svg viewBox="0 0 534.3575718539556 80.070458984375" height="80.070458984375" width="534.3575718539556"><g><svg><g></g><g></g></svg></g><g><svg><g><svg></svg></g><g></g></svg></g><g id="text-0"><svg viewBox="0 0 534.3575718539556 80.070458984375" height="80.070458984375" width="534.3575718539556"><g transform="matrix(1,0,0,1,0,0)"><svg width="346.74814453125" viewBox="3.49 -37.99 214.29 49.49" height="80.070458984375" data-palette-color="#8bc53f"><path d="M3.49 0L3.49-4.2 7.01-4.2 7.01-32.79 3.49-32.79 3.49-37.06 20.14-37.01Q22.39-37.01 24.37-36.17 26.34-35.33 27.81-33.87 29.27-32.42 30.11-30.44 30.96-28.47 30.96-26.2L30.96-26.2Q30.96-23.83 29.64-21.88 28.32-19.92 25.88-18.75L25.88-18.75Q27.08-18.12 28.05-17.27 29.03-16.43 29.71-15.43 30.4-14.43 30.77-13.31 31.15-12.18 31.15-11.01L31.15-11.01Q31.15-8.69 30.31-6.69 29.47-4.69 28-3.2 26.54-1.71 24.57-0.85 22.61 0 20.36 0L20.36 0 3.49 0ZM20.41-16.46L11.79-16.46 11.79-4.2 20.41-4.2Q21.58-4.2 22.58-4.79 23.58-5.37 24.34-6.31 25.1-7.25 25.52-8.45 25.95-9.64 25.95-10.89L25.95-10.89Q25.95-11.96 25.51-12.96 25.07-13.96 24.33-14.75 23.58-15.53 22.57-15.99 21.56-16.46 20.41-16.46L20.41-16.46ZM20.19-32.79L11.79-32.79 11.79-20.7 20.19-20.7Q21.36-20.7 22.38-21.17 23.39-21.63 24.13-22.41 24.88-23.19 25.32-24.22 25.76-25.24 25.76-26.34L25.76-26.34Q25.76-27.54 25.32-28.7 24.88-29.86 24.12-30.76 23.36-31.67 22.35-32.23 21.34-32.79 20.19-32.79L20.19-32.79ZM50.68-21.09L50.68-25.29 58.84-25.29 58.84-4.2 61.64-4.2 61.64 0 54.27 0 54.27-2.34Q52.56-1.03 50.55-0.29 48.53 0.44 46.24 0.44L46.24 0.44Q44.33 0.44 42.78-0.11 41.23-0.66 40.15-1.82 39.06-2.98 38.47-4.76 37.89-6.54 37.89-9.01L37.89-9.01 37.89-21.09 34.47-21.09 34.47-25.29 42.62-25.29 42.62-9.55Q42.62-6.64 43.97-5.15 45.31-3.66 47.82-3.66L47.82-3.66Q49.31-3.66 50.96-4.2 52.61-4.74 54.07-5.69L54.07-5.69 54.07-21.09 50.68-21.09ZM83.32-33.79L83.32-37.99 91.3-37.99 91.3-4.2 95.01-4.2 95.01 0 86.76 0 86.76-2.08Q85.54-0.83 83.93-0.13 82.32 0.56 80.27 0.56L80.27 0.56Q77.7 0.56 75.5-0.33 73.29-1.22 71.66-2.94 70.04-4.66 69.12-7.17 68.21-9.67 68.21-12.89L68.21-12.89Q68.21-15.82 69.09-18.23 69.97-20.63 71.58-22.33 73.19-24.02 75.46-24.96 77.73-25.9 80.51-25.9L80.51-25.9Q82.34-25.9 83.86-25.5 85.37-25.1 86.76-24.1L86.76-24.1 86.76-33.79 83.32-33.79ZM80.85-3.39L80.85-3.39Q82.88-3.39 84.25-3.99 85.62-4.59 86.76-5.79L86.76-5.79 86.76-19.95Q85.54-20.97 83.95-21.44 82.37-21.9 80.71-21.9L80.71-21.9Q79.1-21.9 77.68-21.3 76.26-20.7 75.2-19.56 74.14-18.41 73.53-16.75 72.92-15.09 72.92-12.94L72.92-12.94Q72.92-10.6 73.51-8.81 74.09-7.03 75.14-5.82 76.19-4.61 77.66-4 79.12-3.39 80.85-3.39ZM117.86-1.86L117.86-2.22Q116.62-0.9 114.97-0.17 113.32 0.56 111.22 0.56L111.22 0.56Q108.66 0.56 106.45-0.33 104.24-1.22 102.62-2.94 100.99-4.66 100.08-7.17 99.16-9.67 99.16-12.89L99.16-12.89Q99.16-15.82 100.04-18.23 100.92-20.63 102.53-22.33 104.14-24.02 106.41-24.96 108.68-25.9 111.47-25.9L111.47-25.9Q113.37-25.9 114.9-25.48 116.42-25.05 117.86-24L117.86-24 117.86-25.29 122.4-25.29 122.4-1Q122.4 5 119.56 8.08 116.72 11.16 110.71 11.16L110.71 11.16Q109.39 11.16 107.95 10.96 106.51 10.77 105.11 10.34 103.7 9.91 102.37 9.25 101.04 8.59 99.92 7.64L99.92 7.64 102.36 3.96Q103.09 4.59 104.03 5.13 104.97 5.66 106.05 6.04 107.12 6.42 108.27 6.64 109.42 6.86 110.56 6.86L110.56 6.86Q112.44 6.86 113.82 6.47 115.2 6.08 116.09 5.09 116.98 4.1 117.42 2.42 117.86 0.73 117.86-1.86L117.86-1.86ZM111.81-3.39L111.81-3.39Q112.93-3.39 113.86-3.61 114.79-3.83 115.54-4.19 116.3-4.54 116.87-5 117.45-5.47 117.86-5.98L117.86-5.98 117.86-19.82Q116.62-20.92 114.99-21.41 113.37-21.9 111.66-21.9L111.66-21.9Q110.05-21.9 108.64-21.3 107.22-20.7 106.16-19.56 105.1-18.41 104.48-16.75 103.87-15.09 103.87-12.94L103.87-12.94Q103.87-10.6 104.46-8.81 105.05-7.03 106.1-5.82 107.15-4.61 108.61-4 110.08-3.39 111.81-3.39ZM151.16-12.06L132.95-12.06Q132.95-10.99 133.11-10.1 133.27-9.2 133.56-8.4L133.56-8.4Q134.46-5.96 136.45-4.72 138.44-3.49 140.96-3.49L140.96-3.49Q142.93-3.49 144.8-4.04 146.67-4.59 148.72-5.76L148.72-5.76 150.55-2.66Q148.06-0.95 145.55-0.12 143.03 0.71 140.32 0.71L140.32 0.71Q137.76 0.71 135.57-0.15 133.39-1 131.81-2.69 130.24-4.37 129.35-6.88 128.46-9.4 128.46-12.74L128.46-12.74Q128.46-15.45 129.21-17.86 129.97-20.26 131.47-22.06 132.97-23.85 135.2-24.9 137.42-25.95 140.37-25.95L140.37-25.95Q143.23-25.95 145.14-25.09 147.06-24.22 148.27-22.79 149.48-21.36 150.1-19.53 150.72-17.7 150.97-15.8L150.97-15.8Q151.09-14.87 151.13-13.92 151.16-12.96 151.16-12.06L151.16-12.06ZM140.05-22.14L140.05-22.14Q138.47-22.14 137.28-21.69 136.1-21.24 135.27-20.4 134.44-19.56 133.94-18.33 133.44-17.11 133.19-15.6L133.19-15.6 146.3-15.6Q146.21-17.02 145.85-18.21 145.5-19.41 144.77-20.29 144.03-21.17 142.89-21.66 141.74-22.14 140.05-22.14ZM164.66-33.45L164.66-25.29 170.59-25.29 170.59-21.61 164.61-21.61 164.54-7.01Q164.54-5.52 164.88-4.59 165.22-3.66 165.98-3.31 166.74-2.95 167.69-2.95L167.69-2.95Q168.71-2.95 169.49-3.14 170.28-3.32 171.2-3.76L171.2-3.76 172.25-0.71Q171.08-0.1 169.79 0.26 168.49 0.61 166.74 0.61L166.74 0.61Q165.08 0.61 163.84 0.21 162.61-0.2 161.77-1.15 160.93-2.1 160.51-3.7 160.09-5.3 160.09-7.69L160.09-7.69 160.17-21.61 156.14-21.61 156.14-25.29 160.22-25.29 160.22-31.35 164.66-33.45ZM184.29-29.39L184.29-25.29 190.15-25.29 190.15-21.61 184.29-21.61 184.29-4.2 188.24-4.2 188.24 0 175.94 0 175.94-4.2 179.75-4.2 179.75-21.61 175.57-21.61 175.57-25.29 179.75-25.29 179.75-29.25Q179.79-31.45 180.38-33.08 180.97-34.72 182.04-35.82 183.11-36.91 184.63-37.45 186.14-37.99 188-37.99L188-37.99Q189.29-37.99 190.32-37.87 191.34-37.74 192.15-37.54 192.95-37.33 193.58-37.08 194.2-36.84 194.69-36.6L194.69-36.6 193.3-33.35Q192.51-33.76 191.26-34.06 190-34.35 188.63-34.35L188.63-34.35Q186.61-34.35 185.45-33.09 184.29-31.84 184.29-29.39L184.29-29.39ZM192.44-21.09L192.44-25.29 202.03-25.29 202.03-21.09 199.03-21.09 204.96-4.96 211.16-21.09 208.19-21.09 208.19-25.29 217.78-25.29 217.78-21.09 215.17-21.09 203.91 7.3 207.38 7.3 207.38 11.5 197.17 11.5 197.17 7.3 200.25 7.3 202.94 0.34 194.49-21.09 192.44-21.09Z" opacity="1" transform="matrix(1,0,0,1,0,0)" fill="#8bc53f" class="wordmark-text-0" data-fill-palette-color="primary"></path></svg></g><g><svg xmlns="http://www.w3.org/2000/svg" xmlns:xlink="http://www.w3.org/1999/xlink" version="1.1" x="365.65229492187495" y="0" viewBox="2.416 22.199 75.012 35.602000000000004" enable-background="new 0 0 80 80" xml:space="preserve" height="80.070458984375" width="168.70527693208066" class="icon-cg-0" data-fill-palette-color="accent" id="cg-0"><g fill="#5d9943" data-fill-palette-color="accent"><g fill="#5d9943" data-fill-palette-color="accent"><g fill="#5d9943" data-fill-palette-color="accent"><g fill="#5d9943" data-fill-palette-color="accent"><path d="M12.797 28.498c0.001 2.018-1.632 3.656-3.652 3.66s-3.658-1.631-3.661-3.654c-0.003-2.016 1.634-3.654 3.653-3.658C11.155 24.843 12.795 26.478 12.797 28.498z" fill="#5d9943" data-fill-palette-color="accent"></path><g fill="#5d9943" data-fill-palette-color="accent"><path fill="#5d9943" d="M7.473 29.639c0.128 0.424 0.308 0.775 0.541 1.053s0.496 0.427 0.792 0.452l-0.003-2.278c-0.484-0.239-0.84-0.461-1.066-0.666-0.406-0.357-0.609-0.77-0.611-1.238 0-0.462 0.159-0.845 0.477-1.138 0.316-0.295 0.717-0.462 1.195-0.497v-0.703h0.491l0.002 0.695c0.336 0.042 0.613 0.102 0.83 0.174 0.212 0.07 0.418 0.17 0.62 0.293l0.001 1.268-0.189-0.002c-0.12-0.369-0.242-0.648-0.37-0.836-0.226-0.336-0.523-0.539-0.895-0.611l0.004 1.951c0.592 0.293 1.007 0.548 1.243 0.76 0.412 0.368 0.621 0.807 0.622 1.316-0.001 0.463-0.148 0.857-0.45 1.181-0.298 0.323-0.769 0.524-1.411 0.602l0.002 0.9-0.492 0.001-0.003-0.902c-0.242-0.01-0.44-0.033-0.595-0.064-0.249-0.053-0.559-0.159-0.922-0.318l-0.003-1.414L7.473 29.639zM8.798 25.586c-0.238 0.032-0.432 0.119-0.586 0.263C8.06 25.99 7.981 26.177 7.981 26.41c0.002 0.246 0.111 0.457 0.328 0.633 0.135 0.109 0.299 0.196 0.494 0.26L8.798 25.586zM9.936 30.824c0.142-0.175 0.208-0.4 0.208-0.684 0-0.233-0.075-0.425-0.229-0.57-0.154-0.148-0.362-0.289-0.622-0.423l0.002 1.993C9.585 31.107 9.799 31 9.936 30.824z" data-fill-palette-color="accent"></path></g></g><g fill="#5d9943" data-fill-palette-color="accent"><path d="M12.797 51.561c0.001 2.018-1.632 3.656-3.652 3.66s-3.658-1.631-3.661-3.654c-0.003-2.016 1.634-3.654 3.653-3.658C11.155 47.905 12.795 49.54 12.797 51.561z" fill="#5d9943" data-fill-palette-color="accent"></path><g fill="#5d9943" data-fill-palette-color="accent"><path fill="#5d9943" d="M7.473 52.701c0.128 0.424 0.308 0.775 0.541 1.053s0.496 0.427 0.792 0.452l-0.003-2.278c-0.484-0.239-0.84-0.461-1.066-0.666-0.406-0.357-0.609-0.77-0.611-1.238 0-0.462 0.159-0.845 0.477-1.138 0.316-0.295 0.717-0.462 1.195-0.497v-0.703h0.491l0.002 0.695c0.336 0.042 0.613 0.102 0.83 0.174 0.212 0.07 0.418 0.17 0.62 0.293l0.001 1.268-0.189-0.002c-0.12-0.369-0.242-0.648-0.37-0.836-0.226-0.336-0.523-0.539-0.895-0.611l0.004 1.951c0.592 0.293 1.007 0.548 1.243 0.76 0.412 0.368 0.621 0.807 0.622 1.316-0.001 0.463-0.148 0.857-0.45 1.181-0.298 0.323-0.769 0.524-1.411 0.602l0.002 0.9-0.492 0.001-0.003-0.902c-0.242-0.01-0.44-0.033-0.595-0.064-0.249-0.053-0.559-0.159-0.922-0.318l-0.003-1.414L7.473 52.701zM8.798 48.648c-0.238 0.032-0.432 0.119-0.586 0.263-0.153 0.142-0.231 0.328-0.231 0.562 0.002 0.246 0.111 0.457 0.328 0.633 0.135 0.109 0.299 0.196 0.494 0.26L8.798 48.648zM9.936 53.887c0.142-0.175 0.208-0.4 0.208-0.684 0-0.233-0.075-0.425-0.229-0.57-0.154-0.148-0.362-0.289-0.622-0.423l0.002 1.993C9.585 54.17 9.799 54.062 9.936 53.887z" data-fill-palette-color="accent"></path></g></g></g><g fill="#5d9943" data-fill-palette-color="accent"><g fill="#5d9943" data-fill-palette-color="accent"><path d="M74.359 28.498c0.001 2.018-1.633 3.656-3.652 3.66s-3.658-1.631-3.661-3.654c-0.003-2.016 1.634-3.654 3.653-3.658C72.717 24.843 74.357 26.478 74.359 28.498z" fill="#5d9943" data-fill-palette-color="accent"></path><g fill="#5d9943" data-fill-palette-color="accent"><path fill="#5d9943" d="M69.035 29.639c0.129 0.424 0.309 0.775 0.541 1.053s0.495 0.427 0.792 0.452l-0.003-2.278c-0.484-0.239-0.84-0.461-1.066-0.666-0.406-0.357-0.609-0.77-0.611-1.238 0-0.462 0.158-0.845 0.477-1.138 0.316-0.295 0.717-0.462 1.195-0.497v-0.703h0.491l0.003 0.695c0.336 0.042 0.612 0.102 0.829 0.174 0.212 0.07 0.419 0.17 0.62 0.293l0.001 1.268-0.188-0.002c-0.12-0.369-0.242-0.648-0.37-0.836-0.226-0.336-0.522-0.539-0.895-0.611l0.004 1.951c0.592 0.293 1.007 0.548 1.243 0.76 0.411 0.368 0.62 0.807 0.621 1.316-0.001 0.463-0.148 0.857-0.449 1.181-0.298 0.323-0.77 0.524-1.411 0.602l0.003 0.9-0.492 0.001-0.003-0.902c-0.241-0.01-0.44-0.033-0.595-0.064-0.25-0.053-0.559-0.159-0.922-0.318l-0.004-1.414L69.035 29.639zM70.36 25.586c-0.237 0.032-0.433 0.119-0.586 0.263-0.153 0.142-0.231 0.328-0.231 0.562 0.002 0.246 0.111 0.457 0.328 0.633 0.135 0.109 0.299 0.196 0.494 0.26L70.36 25.586zM71.498 30.824c0.141-0.175 0.208-0.4 0.208-0.684 0-0.233-0.075-0.425-0.229-0.57-0.154-0.148-0.361-0.289-0.621-0.423l0.002 1.993C71.147 31.107 71.361 31 71.498 30.824z" data-fill-palette-color="accent"></path></g></g><g fill="#5d9943" data-fill-palette-color="accent"><path d="M74.359 51.561c0.001 2.018-1.633 3.656-3.652 3.66s-3.658-1.631-3.661-3.654c-0.003-2.016 1.634-3.654 3.653-3.658C72.717 47.905 74.357 49.54 74.359 51.561z" fill="#5d9943" data-fill-palette-color="accent"></path><g fill="#5d9943" data-fill-palette-color="accent"><path fill="#5d9943" d="M69.035 52.701c0.129 0.424 0.309 0.775 0.541 1.053s0.495 0.427 0.792 0.452l-0.003-2.278c-0.484-0.239-0.84-0.461-1.066-0.666-0.406-0.357-0.609-0.77-0.611-1.238 0-0.462 0.158-0.845 0.477-1.138 0.316-0.295 0.717-0.462 1.195-0.497v-0.703h0.491l0.003 0.695c0.336 0.042 0.612 0.102 0.829 0.174 0.212 0.07 0.419 0.17 0.62 0.293l0.001 1.268-0.188-0.002c-0.12-0.369-0.242-0.648-0.37-0.836-0.226-0.336-0.522-0.539-0.895-0.611l0.004 1.951c0.592 0.293 1.007 0.548 1.243 0.76 0.411 0.368 0.62 0.807 0.621 1.316-0.001 0.463-0.148 0.857-0.449 1.181-0.298 0.323-0.77 0.524-1.411 0.602l0.003 0.9-0.492 0.001-0.003-0.902c-0.241-0.01-0.44-0.033-0.595-0.064-0.25-0.053-0.559-0.159-0.922-0.318l-0.004-1.414L69.035 52.701zM70.36 48.648c-0.237 0.032-0.433 0.119-0.586 0.263-0.153 0.142-0.231 0.328-0.231 0.562 0.002 0.246 0.111 0.457 0.328 0.633 0.135 0.109 0.299 0.196 0.494 0.26L70.36 48.648zM71.498 53.887c0.141-0.175 0.208-0.4 0.208-0.684 0-0.233-0.075-0.425-0.229-0.57-0.154-0.148-0.361-0.289-0.621-0.423l0.002 1.993C71.147 54.17 71.361 54.062 71.498 53.887z" data-fill-palette-color="accent"></path></g></g></g></g><g fill="#5d9943" data-fill-palette-color="accent"><path d="M59.738 37.511c-0.103-0.255-0.254-0.381-0.451-0.381-0.201 0-0.354 0.129-0.458 0.387-0.104 0.259-0.156 0.747-0.155 1.467l0.003 2.049c0.007 0.729 0.061 1.22 0.163 1.475 0.102 0.255 0.256 0.383 0.463 0.383 0.259-0.001 0.434-0.237 0.522-0.709 0.05-0.26 0.074-0.643 0.073-1.149l-0.003-2.05C59.895 38.256 59.843 37.766 59.738 37.511z" fill="#5d9943" data-fill-palette-color="accent"></path><path d="M20.747 37.511c-0.104-0.254-0.255-0.381-0.452-0.381-0.201 0-0.354 0.129-0.458 0.388-0.104 0.258-0.156 0.746-0.155 1.466l0.003 2.05c0.007 0.729 0.061 1.219 0.163 1.474 0.102 0.255 0.257 0.383 0.463 0.383 0.259-0.001 0.433-0.237 0.522-0.709 0.049-0.26 0.073-0.643 0.073-1.149l-0.003-2.05C20.902 38.256 20.85 37.766 20.747 37.511z" fill="#5d9943" data-fill-palette-color="accent"></path><path d="M25.215 37.506c-0.104-0.255-0.255-0.382-0.452-0.382-0.201 0.001-0.354 0.13-0.458 0.388s-0.156 0.746-0.155 1.466l0.003 2.05c0.007 0.729 0.061 1.22 0.163 1.475 0.102 0.255 0.257 0.382 0.463 0.382 0.259 0 0.433-0.236 0.522-0.709 0.049-0.26 0.073-0.643 0.073-1.149l-0.003-2.049C25.371 38.251 25.319 37.761 25.215 37.506z" fill="#5d9943" data-fill-palette-color="accent"></path><path d="M64.206 37.506c-0.103-0.255-0.254-0.382-0.451-0.382-0.201 0.001-0.354 0.13-0.458 0.388s-0.156 0.746-0.155 1.466l0.003 2.05c0.007 0.729 0.061 1.22 0.163 1.475 0.102 0.254 0.256 0.382 0.463 0.382 0.259 0 0.434-0.237 0.522-0.709 0.05-0.26 0.074-0.643 0.073-1.149l-0.003-2.049C64.362 38.251 64.311 37.761 64.206 37.506z" fill="#5d9943" data-fill-palette-color="accent"></path><path d="M70.691 32.604c-2.244 0-4.064-1.82-4.064-4.064 0-0.481 0.084-0.944 0.238-1.373H12.978c0.154 0.429 0.238 0.892 0.238 1.373 0 2.244-1.82 4.064-4.064 4.064-0.452 0-0.886-0.074-1.292-0.21v15.211c0.406-0.137 0.84-0.21 1.292-0.21 2.244 0 4.064 1.819 4.064 4.063 0 0.482-0.084 0.945-0.238 1.374h53.888c-0.154-0.429-0.238-0.892-0.238-1.374 0-2.244 1.82-4.063 4.064-4.063 0.451 0 0.887 0.073 1.292 0.21V32.395C71.578 32.53 71.143 32.604 70.691 32.604zM14.206 43.019l-0.001-0.214c0.454 0 0.745-0.062 0.873-0.187 0.128-0.123 0.191-0.358 0.191-0.705l-0.005-3.442c0-0.221-0.025-0.378-0.076-0.472-0.052-0.092-0.146-0.139-0.282-0.139-0.072 0-0.185 0.025-0.336 0.074-0.096 0.029-0.227 0.077-0.393 0.141v-0.227l2.255-0.977h0.157l0.006 5.092c0.001 0.326 0.054 0.547 0.158 0.663s0.372 0.175 0.803 0.174l0.001 0.214L14.206 43.019zM21.644 42.398c-0.374 0.493-0.822 0.739-1.343 0.74-0.366 0-0.679-0.107-0.938-0.322-0.259-0.216-0.48-0.493-0.664-0.833-0.157-0.288-0.269-0.619-0.333-0.991-0.038-0.219-0.067-0.532-0.089-0.942-0.001-1.068 0.236-1.896 0.713-2.481 0.378-0.467 0.811-0.7 1.3-0.701 0.564-0.001 1.04 0.286 1.428 0.858 0.394 0.589 0.591 1.327 0.592 2.218C22.311 40.994 22.089 41.813 21.644 42.398zM26.113 42.393c-0.374 0.493-0.822 0.739-1.343 0.74-0.366 0.001-0.679-0.107-0.938-0.322-0.259-0.215-0.48-0.493-0.664-0.833-0.157-0.288-0.269-0.619-0.333-0.99-0.038-0.219-0.067-0.533-0.089-0.943-0.001-1.068 0.236-1.896 0.713-2.481 0.378-0.466 0.811-0.7 1.3-0.701 0.564 0 1.04 0.286 1.428 0.859 0.394 0.588 0.591 1.327 0.592 2.218C26.78 40.989 26.558 41.808 26.113 42.393zM30.667 40.01c-0.004-4.865 3.784-8.853 8.569-9.16l0.001 1.623c-1.147 0.086-2.097 0.481-2.856 1.186-0.76 0.703-1.138 1.611-1.136 2.723 0.002 1.113 0.485 2.097 1.457 2.955 0.546 0.489 1.394 1.021 2.549 1.589l0.005 5.442c-0.707-0.058-1.336-0.418-1.892-1.081-0.555-0.667-0.986-1.503-1.289-2.517l-0.455-0.05 0.005 3.376c0.874 0.38 1.609 0.632 2.209 0.757 0.365 0.078 0.842 0.13 1.423 0.158l0.003 2.142C34.469 48.854 30.674 44.878 30.667 40.01zM39.245 37.193c-0.46-0.152-0.854-0.361-1.175-0.62-0.518-0.422-0.78-0.925-0.781-1.509 0.001-0.557 0.184-1.007 0.547-1.349 0.367-0.341 0.834-0.549 1.401-0.621L39.245 37.193zM40.423 41.6c0.619 0.315 1.113 0.651 1.479 1.008 0.365 0.354 0.549 0.81 0.551 1.366 0.001 0.67-0.165 1.214-0.497 1.633-0.327 0.42-0.838 0.674-1.528 0.761L40.423 41.6zM40.431 49.15l-0.002-2.142c1.535-0.187 2.659-0.663 3.371-1.436 0.713-0.772 1.07-1.711 1.069-2.817-0.002-1.219-0.497-2.268-1.481-3.147-0.565-0.504-1.553-1.111-2.97-1.813l-0.005-4.657c0.88 0.167 1.592 0.653 2.134 1.455 0.303 0.445 0.596 1.114 0.879 2.003l0.456-0.002-0.005-3.028c-0.479-0.293-0.977-0.526-1.484-0.698-0.511-0.175-1.172-0.316-1.98-0.417l-0.005-1.603c4.796 0.295 8.593 4.272 8.601 9.142C49.015 44.858 45.225 48.845 40.431 49.15zM56.549 43.015l-3.352 0.004v-0.214c0.454 0 0.745-0.062 0.873-0.187 0.128-0.123 0.19-0.358 0.19-0.705l-0.004-3.442c-0.001-0.221-0.026-0.378-0.077-0.472-0.051-0.093-0.145-0.139-0.281-0.139-0.072 0-0.185 0.025-0.336 0.074-0.096 0.029-0.227 0.076-0.393 0.141v-0.227l2.255-0.977h0.157l0.006 5.092c0 0.326 0.053 0.547 0.158 0.663 0.104 0.116 0.372 0.175 0.803 0.174V43.015zM60.638 42.398c-0.375 0.492-0.822 0.739-1.343 0.74-0.366 0-0.681-0.107-0.939-0.322-0.259-0.216-0.479-0.494-0.664-0.833-0.157-0.288-0.269-0.619-0.333-0.991-0.037-0.219-0.067-0.533-0.088-0.943-0.002-1.068 0.235-1.896 0.713-2.48 0.377-0.467 0.811-0.7 1.299-0.701 0.564-0.001 1.04 0.286 1.429 0.858 0.393 0.589 0.59 1.327 0.592 2.218C61.304 40.994 61.082 41.812 60.638 42.398zM65.105 42.393c-0.375 0.493-0.822 0.739-1.343 0.74-0.366 0-0.681-0.107-0.939-0.322s-0.479-0.493-0.664-0.833c-0.157-0.288-0.269-0.619-0.333-0.991-0.037-0.218-0.067-0.532-0.088-0.942-0.002-1.068 0.235-1.896 0.713-2.481 0.377-0.467 0.811-0.7 1.299-0.701 0.564 0 1.04 0.286 1.429 0.858 0.393 0.589 0.59 1.328 0.592 2.219C65.771 40.988 65.55 41.808 65.105 42.393z" fill="#5d9943" data-fill-palette-color="accent"></path></g><path d="M2.416 22.199v35.602h75.012V22.199H2.416zM75.426 55.803H4.418V24.197h71.007V55.803z" fill="#5d9943" data-fill-palette-color="accent"></path></g></svg></g></svg></g></svg></g></svg></g></svg></g><g></g></svg></g><defs></defs></svg><rect width="395.52" height="59.266434323411296" fill="none" stroke="none" visibility="hidden"></rect></g></svg></g></svg>